<svg xmlns="http://www.w3.org/2000/svg" viewBox="0 0 200 200" width="200" height="200">
  <polygon points="100.0,6.0 114.2,19.2 132.1,11.7 141.0,29.0 160.4,28.0 162.8,47.3 181.4,53.0 177.1,72.0 192.6,83.7 182.0,100.0 192.6,116.3 177.1,128.0 181.4,147.0 162.8,152.7 160.4,172.0 141.0,171.0 132.1,188.3 114.2,180.8 100.0,194.0 85.8,180.8 67.9,188.3 59.0,171.0 39.6,172.0 37.2,152.7 18.6,147.0 22.9,128.0 7.4,116.3 18.0,100.0 7.4,83.7 22.9,72.0 18.6,53.0 37.2,47.3 39.6,28.0 59.0,29.0 67.9,11.7 85.8,19.2" fill="#c6a461"/>
  <circle cx="100" cy="100" r="58" fill="#093322"/>
  <path d="M88 105l-14-14-5 5 19 19 40-40-5-5z" fill="#c6a461"/>
</svg>