<svg xmlns="http://www.w3.org/2000/svg" viewBox="0 0 256 356" width="256" height="356">
  <!-- Outer bg -->
  <rect width="256" height="356" rx="12" fill="#f7f7f7"/>
  <!-- Card -->
  <rect x="28" y="52" width="200" height="276" rx="16" fill="#ffffff" stroke="#006b3c" stroke-width="2.5"/>
  <!-- Avatar circle -->
  <circle cx="128" cy="52" r="28" fill="#f0ede6" stroke="#c9a24d" stroke-width="3"/>
  <!-- Head silhouette -->
  <circle cx="128" cy="44" r="9" fill="#c9a24d" opacity="0.4"/>
  <ellipse cx="128" cy="66" rx="13" ry="10" fill="#c9a24d" opacity="0.4"/>
  <!-- PRESIDENT label -->
  <rect x="93" y="96" width="70" height="7" rx="2" fill="#c9a24d"/>
  <!-- Name -->
  <rect x="68" y="114" width="120" height="10" rx="2" fill="#006b3c"/>
  <!-- Designation -->
  <rect x="83" y="136" width="90" height="6" rx="2" fill="#444"/>
  <!-- Message lines -->
  <rect x="48" y="158" width="160" height="5" rx="2" fill="#ddd"/>
  <rect x="56" y="170" width="144" height="5" rx="2" fill="#ddd"/>
  <rect x="64" y="182" width="128" height="5" rx="2" fill="#ddd"/>
  <rect x="56" y="194" width="144" height="5" rx="2" fill="#ddd"/>
  <!-- Divider -->
  <rect x="103" y="214" width="50" height="3" rx="1.5" fill="#c9a24d"/>
  <!-- Button -->
  <rect x="73" y="232" width="110" height="28" rx="6" fill="#006b3c" stroke="#c9a24d" stroke-width="1.5"/>
  <text x="128" y="250" text-anchor="middle" fill="#ffffff" font-size="8" font-weight="bold" font-family="Arial, sans-serif">READ MESSAGE</text>
</svg>
