<svg xmlns="http://www.w3.org/2000/svg" width="100" height="62" viewBox="0 0 100 62">
<rect width="100" height="62" rx="4" fill="#f1f5f9"/>
<rect x="4" y="16" width="20" height="30" rx="3" fill="#fff" stroke="#cbd5e1" stroke-width="0.5"/>
<rect x="28" y="16" width="20" height="30" rx="3" fill="#fff" stroke="#cbd5e1" stroke-width="0.5"/>
<rect x="52" y="16" width="20" height="30" rx="3" fill="#fff" stroke="#cbd5e1" stroke-width="0.5"/>
<rect x="76" y="16" width="20" height="30" rx="3" fill="#fff" stroke="#cbd5e1" stroke-width="0.5"/>
<circle cx="14" cy="24" r="4" fill="#1673CA" opacity="0.2"/><rect x="9" y="31" width="10" height="2" rx="1" fill="#334155"/>
<circle cx="38" cy="24" r="4" fill="#1673CA" opacity="0.2"/><rect x="33" y="31" width="10" height="2" rx="1" fill="#334155"/>
<circle cx="62" cy="24" r="4" fill="#1673CA" opacity="0.2"/><rect x="57" y="31" width="10" height="2" rx="1" fill="#334155"/>
<circle cx="86" cy="24" r="4" fill="#1673CA" opacity="0.2"/><rect x="81" y="31" width="10" height="2" rx="1" fill="#334155"/>
<rect x="20" y="6" width="60" height="4" rx="2" fill="#334155"/>
</svg>
